<svg xmlns="http://www.w3.org/2000/svg" viewBox="0 0 1200 1200">
  <g fill="none" transform="translate(100 100)">
    <circle cx="499.473" cy="499.473" r="499.473" fill="#FFD500"/>
    <path fill="currentColor" d="M600.705051 395.743875L576.231768 457.975057C602.896446 475.047562 618.831838 504.699051 618.356226 536.357372 616.870548 584.45827 577.303526 622.601977 529.180485 622.325261 481.057445 622.048544 441.931691 583.452339 440.999272 535.337536 440.066852 487.222734 477.667875 447.139636 525.744063 444.998669L548.748127 381.185251C456.166787 368.907513 371.229495 435.166204 371.229495 532.216846L371.034284 532.124378 371.034284 692.669935 441.032805 692.669935 441.032805 667.487729C467.546279 684.246148 498.335564 692.99059 529.699653 692.669935 602.873372 693.653325 666.95466 643.785986 683.977077 572.612974 700.999494 501.439963 666.41556 427.974906 600.715325 395.743875L600.705051 395.743875zM371.034284 388.120376C390.950877 367.826671 414.698232 351.688946 440.89924 340.643029L440.89924 240.109413 371.034284 240.109413 371.034284 388.120376z"/>
  </g>
</svg>
